<svg id="Layer_1" data-name="Layer 1" xmlns="http://www.w3.org/2000/svg" viewBox="0 0 257.75 246.73"><defs><style>.cls-1{fill:#aa7c00;stroke:#000;stroke-miterlimit:10;stroke-width:10px;}</style></defs><title>win</title><path class="cls-1" d="M288.29,136.21a11.26,11.26,0,0,0-9.09-7.67l-71.95-10.45L175.07,52.88a11.26,11.26,0,0,0-20.2,0l-32.18,65.21L50.74,128.54a11.26,11.26,0,0,0-6.24,19.21L96.56,198.5,84.27,270.17A11.25,11.25,0,0,0,100.61,282L165,248.21,229.33,282a11.27,11.27,0,0,0,16.52-10,11.56,11.56,0,0,0-.28-2.51L233.38,198.5l52.06-50.75A11.24,11.24,0,0,0,288.29,136.21Z" transform="translate(-36.1 -41.6)"/></svg>